<svg width="284" height="126" viewBox="0 0 284 126" fill="none" xmlns="http://www.w3.org/2000/svg">
<path fill-rule="evenodd" clip-rule="evenodd" d="M157.918 43.7562C160.834 42.4199 164.039 41.8379 167.239 42.0636C170.438 42.2893 173.53 43.3156 176.229 45.048C178.929 46.7804 181.149 49.1635 182.687 51.9782C184.225 54.7929 185.031 57.949 185.031 61.1565V83.4811H176.525V61.1565C176.525 54.6687 171.757 49.4784 165.892 49.4784C164.35 49.4937 162.831 49.8584 161.45 50.545C160.069 51.2315 158.861 52.2222 157.918 53.4425V43.7562Z" fill="#89CC53"/>
<path fill-rule="evenodd" clip-rule="evenodd" d="M226.494 101.556V80.2891C223.326 82.6654 219.557 84.1102 215.612 84.461C211.666 84.8117 207.702 84.0544 204.163 82.2744V72.2637C205.383 73.7684 206.923 74.9833 208.67 75.8203C210.417 76.6574 212.328 77.0957 214.265 77.1036C221.603 77.1036 227.558 70.9077 227.558 63.2781C227.558 55.6484 221.603 49.459 214.265 49.459C212.328 49.4669 210.417 49.9052 208.67 50.7423C206.923 51.5793 205.383 52.7941 204.163 54.2989V44.2882C207.827 42.4445 211.945 41.6993 216.022 42.1425C220.099 42.5857 223.962 44.1983 227.143 46.786L227.558 43.0815H235V62.2205H234.968C234.968 62.5709 235 62.9277 235 63.2781V101.556H226.494Z" fill="#238647"/>
<path fill-rule="evenodd" clip-rule="evenodd" d="M219.585 83.7275C216.418 84.6394 213.083 84.8029 209.842 84.2051C206.601 83.6073 203.544 82.2645 200.911 80.2827C198.278 78.3009 196.141 75.7344 194.67 72.7856C193.199 69.8368 192.433 66.5864 192.433 63.2909C192.433 59.9955 193.199 56.7451 194.67 53.7963C196.141 50.8475 198.278 48.2809 200.911 46.2991C203.544 44.3174 206.601 42.9746 209.842 42.3767C213.083 41.7789 216.418 41.9424 219.585 42.8543V50.6397C217.916 49.8754 216.101 49.4815 214.265 49.4849C206.927 49.4849 200.978 55.6807 200.978 63.3039C200.978 70.9271 206.927 77.1294 214.265 77.1294C216.101 77.1298 217.915 76.736 219.585 75.9746V83.7275Z" fill="#2F9B47"/>
<path fill-rule="evenodd" clip-rule="evenodd" d="M204.163 82.2743C200.648 80.5006 197.694 77.7859 195.629 74.4326C193.565 71.0793 192.473 67.2189 192.473 63.2812C192.473 59.3435 193.565 55.4831 195.629 52.1298C197.694 48.7765 200.648 46.0619 204.163 44.2881V54.2988C202.106 56.8402 200.983 60.0111 200.983 63.2812C200.983 66.5513 202.106 69.7222 204.163 72.2636V82.2743Z" fill="#62B64F"/>
<path fill-rule="evenodd" clip-rule="evenodd" d="M173.333 52.8067C172.393 51.7628 171.246 50.926 169.965 50.3497C168.684 49.7733 167.297 49.47 165.892 49.459C160.02 49.459 155.258 54.7011 155.258 61.1371V83.4811H146.753V61.1565C146.751 57.9958 147.533 54.8839 149.027 52.0987C150.521 49.3135 152.682 46.9418 155.317 45.1954C157.951 43.449 160.977 42.3822 164.124 42.0903C167.272 41.7984 170.442 42.2905 173.353 43.5226L173.333 52.8067Z" fill="#3DB8AD"/>
<path fill-rule="evenodd" clip-rule="evenodd" d="M157.918 53.423C156.177 55.6231 155.239 58.3511 155.258 61.1565V83.4811H146.753V61.1565C146.753 57.4917 147.806 53.9041 149.785 50.8197C151.764 47.7353 154.587 45.2837 157.918 43.7562V53.423Z" fill="#3394D7"/>
<path fill-rule="evenodd" clip-rule="evenodd" d="M111.667 73.7559C112.607 74.7998 113.754 75.6365 115.035 76.2129C116.316 76.7892 117.703 77.0926 119.108 77.1036C124.947 77.1036 129.742 71.8614 129.742 65.4255V43.0815H138.247V65.406C138.249 68.5668 137.467 71.6787 135.973 74.4639C134.479 77.249 132.318 79.6207 129.683 81.3672C127.049 83.1136 124.023 84.1804 120.876 84.4723C117.728 84.7642 114.558 84.2721 111.647 83.0399L111.667 73.7559Z" fill="#2872BC"/>
<path fill-rule="evenodd" clip-rule="evenodd" d="M127.082 82.8064C124.166 84.1426 120.961 84.7247 117.761 84.4989C114.562 84.2732 111.47 83.247 108.771 81.5146C106.072 79.7822 103.851 77.3991 102.313 74.5844C100.775 71.7697 99.969 68.6135 99.9692 65.406V43.0815H108.475V65.406C108.475 71.8939 113.243 77.0841 119.108 77.0841C120.65 77.0688 122.169 76.7042 123.55 76.0176C124.931 75.331 126.139 74.3404 127.082 73.1201V82.8064Z" fill="#1D5C84"/>
<path fill-rule="evenodd" clip-rule="evenodd" d="M111.667 83.04C108.204 81.5715 105.25 79.1164 103.174 75.9806C101.097 72.8449 99.9894 69.1672 99.9886 65.4062V43.0816H108.475V65.4062C108.451 68.4918 109.59 71.4732 111.667 73.756V83.04Z" fill="#993233"/>
<path fill-rule="evenodd" clip-rule="evenodd" d="M65.415 42.8349C68.5818 41.923 71.9172 41.7595 75.158 42.3573C78.3988 42.9552 81.4563 44.2979 84.0893 46.2797C86.7222 48.2615 88.8587 50.8281 90.3299 53.7769C91.8012 56.7257 92.567 59.9761 92.567 63.2715C92.567 66.567 91.8012 69.8174 90.3299 72.7662C88.8587 75.715 86.7222 78.2815 84.0893 80.2633C81.4563 82.2451 78.3988 83.5879 75.158 84.1857C71.9172 84.7835 68.5818 84.62 65.415 83.7081V75.9228C67.0853 76.6841 68.8995 77.0779 70.735 77.0776C78.0663 77.0776 84.0221 70.8817 84.0221 63.2521C84.0221 55.6224 78.0663 49.433 70.735 49.433C68.8992 49.4296 67.0843 49.8236 65.415 50.5879V42.8349Z" fill="#E13030"/>
<path fill-rule="evenodd" clip-rule="evenodd" d="M80.8366 82.2744C77.1732 84.1181 73.0549 84.8633 68.9777 84.4201C64.9005 83.977 61.0385 82.3644 57.8568 79.7766L57.4415 83.4812H50V25H58.5055V46.2735C61.6742 43.8972 65.4432 42.4524 69.3884 42.1017C73.3336 41.751 77.2984 42.5082 80.8366 44.2883V54.299C79.6146 52.7932 78.0732 51.5778 76.324 50.7408C74.5747 49.9038 72.6613 49.466 70.7221 49.4591C63.3844 49.4591 57.4286 55.6549 57.4286 63.2781C57.4286 70.9013 63.3844 77.1036 70.7221 77.1036C72.6591 77.0948 74.57 76.6561 76.3169 75.8191C78.0637 74.9822 79.603 73.7678 80.8236 72.2637L80.8366 82.2744Z" fill="#F28825"/>
<path fill-rule="evenodd" clip-rule="evenodd" d="M65.4151 83.7277C62.6539 82.9365 60.0824 81.5923 57.8568 79.7766L57.4416 83.4811H50.0001V25H58.5056V46.2735C60.5786 44.7136 62.9207 43.5481 65.4151 42.835V50.6204C63.0351 51.7684 61.0271 53.5645 59.622 55.8024C58.2168 58.0403 57.4714 60.6291 57.4714 63.2716C57.4714 65.914 58.2168 68.5029 59.622 70.7408C61.0271 72.9787 63.0351 74.7748 65.4151 75.9228V83.7277Z" fill="#F5C836"/>
</svg>
